<?xml version="1.0" encoding="UTF-8"?><svg xmlns="http://www.w3.org/2000/svg" viewBox="0 0 508 208.8"><defs><style>.cls-1{fill:none;isolation:isolate;}.cls-2{fill:#fff;}.cls-3,.cls-4{fill:#44687d;}.cls-4,.cls-5,.cls-6,.cls-7{mix-blend-mode:multiply;}.cls-5{fill:#ef8200;}.cls-6{fill:#f5cf47;}.cls-7{fill:#66bc29;}</style></defs><g class="cls-1"><g id="Layer_1"><path class="cls-2" d="m37.55,66.32c1.82,3.15,4.09,6.34,6.95,9.56,0,0,7.45-6.7,11.08-17.83.59,5.53,2.66,11.59,7.45,17.76,0,0,8.54-8.8,7.67-22.27.84,2.15,2.03,4.36,3.76,6.6,0,0,12.36-12.73-.36-29.57,0,0-5.04,6.36-4.96,15.09-.9-2.74-2.23-5.61-4.08-8.58.66-6.98-.98-15.6-8.19-25.15,0,0-3.69,4.67-5.79,11.89-1.95-3.35-4.38-6.8-7.44-10.34,0,0-9.56,10.46-11.65,25.6-1.59-3.02-3.55-6.12-5.94-9.29,0,0-23.54,29.43.74,60.7,0,0,9.04-9.31,10.77-24.17Z"/><path class="cls-2" d="m39.38,163.18c.78,1.22,1.63,2.45,2.58,3.69,0,0,20.91-21.52-.6-50,0,0-2.52,3.16-4.8,8.39-2.11-4.64-4.95-9.46-8.71-14.43,0,0-3.04,3.82-6.07,10.23-.84-2.64-2.07-5.4-3.78-8.27,4.39-9.1,7.67-24.72-6.27-43.17,0,0-18.35,22.97-1.79,48.3-2.95,8.13-4.38,20.47,5.57,33.28,0,0,.16-.17.44-.49.73,9.75,4.22,20.54,12.76,31.54,0,0,6.92-7.14,10.67-19.07Z"/><path class="cls-2" d="m77.86,165.06s29.87-30.74-.86-71.43c0,0-4.12,5.17-7.54,13.61-.72-4.42-2.66-9.33-6.63-14.59,0,0-3.08,3.91-4.85,9.95-.9-2.56-2.28-5.27-4.43-8.11,0,0-11.47,14.33.36,29.56,0,0,2.24-2.33,3.83-6.29.94,3.45,2.63,7.06,5.46,10.72-1.95,3.07-5.37,9.51-5.98,17.68-1.48,2.03-7.58,11.23-6.8,23.17-1.08-2-2.38-4.05-3.96-6.15,0,0-16.43,20.53.51,42.35,0,0,8.56-8.83,7.64-22.33.97,1.77,2.07,3.55,3.47,5.35,0,0,7.12-7.34,7.76-18.88,1.5-1.83,4.85-6.46,6.42-13.07,1.57,2.79,3.4,5.61,5.6,8.44Zm-12.86-37.89c-.1-.13-.18-.26-.28-.39.1-.14.21-.29.31-.44-.02.28-.02.56-.03.84Z"/><path class="cls-4" d="m26.04,29.79s-23.54,29.43.74,60.7c0,0,25.38-26.12-.74-60.7Z"/><path class="cls-4" d="m64.54,126.53s-17.08,21.34.53,44.02c0,0,18.41-18.94-.53-44.02Z"/><path class="cls-4" d="m53.54,94.49s-11.47,14.33.36,29.56c0,0,12.36-12.73-.36-29.56Z"/><path class="cls-4" d="m74.1,30.58s-11.47,14.33.36,29.57c0,0,12.36-12.73-.36-29.57Z"/><path class="cls-7" d="m46.45,163.19s-16.43,20.53.51,42.35c0,0,17.71-18.22-.51-42.35Z"/><path class="cls-7" d="m11.73,69.63s-20.06,25.07.63,51.71c0,0,21.62-22.25-.63-51.71Z"/><path class="cls-7" d="m41.36,116.87s-19.4,24.24.6,50c0,0,20.91-21.52-.6-50Z"/><path class="cls-7" d="m62.51,33.36s-16.47,20.59.51,42.46c0,0,17.76-18.27-.51-42.46Z"/><path class="cls-6" d="m62.82,92.66s-13.94,17.42.44,35.93c0,0,15.02-15.46-.44-35.93Z"/><path class="cls-5" d="m43.63,13.48s-27.71,30.26.86,62.4c0,0,29.87-26.85-.86-62.4Z"/><path class="cls-6" d="m14.99,108.35s-16.62,20.78.52,42.85c0,0,17.92-18.44-.52-42.85Z"/><path class="cls-6" d="m57.56,145.7s-16.63,20.78.52,42.86c0,0,17.92-18.44-.52-42.86Z"/><path class="cls-6" d="m56.87,11.93s-16.62,20.78.52,42.85c0,0,17.92-18.44-.52-42.85Z"/><path class="cls-5" d="m27.85,110.83s-27.7,34.63.87,71.42c0,0,29.87-30.73-.87-71.42Z"/><path class="cls-5" d="m76.99,93.63s-27.71,34.63.86,71.43c0,0,29.87-30.74-.86-71.43Z"/><path class="cls-3" d="m121.32,97.25v-.11c0-11.05,8.45-20.4,20.35-20.4,6.88,0,11.1,1.92,15.16,5.35l-4.4,5.24c-3.04-2.59-6.03-4.23-11.05-4.23-7.27,0-12.79,6.37-12.79,13.92v.11c0,8.12,5.35,14.09,13.41,14.09,3.72,0,7.1-1.18,9.52-2.99v-7.38h-10.09v-6.03h16.8v16.57c-3.89,3.32-9.47,6.14-16.46,6.14-12.34,0-20.46-8.79-20.46-20.29Z"/><path class="cls-3" d="m170.91,77.41h17.58c4.96,0,8.85,1.47,11.38,3.95,2.09,2.14,3.27,5.07,3.27,8.51v.11c0,6.48-3.89,10.37-9.41,11.95l10.65,14.93h-8.17l-9.69-13.75h-8.68v13.75h-6.93v-39.45Zm17.08,19.56c4.96,0,8.12-2.59,8.12-6.59v-.11c0-4.23-3.04-6.54-8.17-6.54h-10.09v13.24h10.14Z"/><path class="cls-3" d="m229.86,77.13h6.43l17.36,39.73h-7.33l-4-9.52h-18.65l-4.06,9.52h-7.1l17.36-39.73Zm9.92,24.07l-6.82-15.78-6.76,15.78h13.58Z"/><path class="cls-3" d="m268.07,101.31l-15.67-23.9h8.17l11.05,17.47,11.16-17.47h7.95l-15.67,23.73v15.72h-6.99v-15.56Z"/><path class="cls-3" d="m298.84,77.41h7.5l9.41,29.25,9.69-29.36h5.86l9.69,29.36,9.41-29.25h7.27l-13.75,39.73h-5.97l-9.69-28.35-9.69,28.35h-5.97l-13.75-39.73Z"/><path class="cls-3" d="m364.72,97.25v-.11c0-11.1,8.57-20.4,20.68-20.4s20.57,9.19,20.57,20.29v.11c0,11.1-8.57,20.4-20.68,20.4s-20.57-9.19-20.57-20.29Zm33.99,0v-.11c0-7.66-5.58-14.03-13.41-14.03s-13.3,6.26-13.3,13.92v.11c0,7.66,5.58,14.03,13.41,14.03s13.3-6.26,13.3-13.92Z"/><path class="cls-3" d="m416.86,97.25v-.11c0-11.1,8.57-20.4,20.68-20.4s20.57,9.19,20.57,20.29v.11c0,11.1-8.57,20.4-20.68,20.4s-20.57-9.19-20.57-20.29Zm33.99,0v-.11c0-7.66-5.58-14.03-13.41-14.03s-13.3,6.26-13.3,13.92v.11c0,7.66,5.58,14.03,13.41,14.03s13.3-6.26,13.3-13.92Z"/><path class="cls-3" d="m469.32,77.41h14.71c12.4,0,20.97,8.51,20.97,19.61v.11c0,11.1-8.57,19.73-20.97,19.73h-14.71v-39.45Zm14.71,33.14c8.29,0,13.7-5.58,13.7-13.3v-.11c0-7.72-5.41-13.41-13.7-13.41h-7.78v26.83h7.78Z"/><path class="cls-3" d="m128.59,141.06h2.58l6.98,15.97h-2.95l-1.61-3.83h-7.5l-1.63,3.83h-2.85l6.98-15.97Zm3.99,9.67l-2.74-6.34-2.72,6.34h5.46Z"/><polygon class="cls-3" points="146.22 141.18 148.81 141.18 157.3 152.14 157.3 141.18 160.04 141.18 160.04 157.04 157.71 157.04 148.96 145.75 148.96 157.04 146.22 157.04 146.22 141.18"/><rect class="cls-3" x="183.59" y="141.18" width="2.79" height="15.86"/><polygon class="cls-3" points="196.42 141.18 199 141.18 207.5 152.14 207.5 141.18 210.24 141.18 210.24 157.04 207.9 157.04 199.16 145.75 199.16 157.04 196.42 157.04 196.42 141.18"/><polygon class="cls-3" points="224.47 143.76 219.44 143.76 219.44 141.18 232.31 141.18 232.31 143.76 227.28 143.76 227.28 157.04 224.47 157.04 224.47 143.76"/><polygon class="cls-3" points="241.51 141.18 253.27 141.18 253.27 143.67 244.3 143.67 244.3 147.79 252.25 147.79 252.25 150.29 244.3 150.29 244.3 154.55 253.38 154.55 253.38 157.04 241.51 157.04 241.51 141.18"/><polygon class="cls-3" points="262.95 141.18 265.74 141.18 265.74 154.5 274.07 154.5 274.07 157.04 262.95 157.04 262.95 141.18"/><polygon class="cls-3" points="283.23 141.18 286.02 141.18 286.02 154.5 294.35 154.5 294.35 157.04 283.23 157.04 283.23 141.18"/><rect class="cls-3" x="303.67" y="141.18" width="2.79" height="15.86"/><path class="cls-3" d="m316.25,149.15v-.04c0-4.44,3.4-8.2,8.18-8.2,2.77,0,4.46.77,6.1,2.15l-1.77,2.11c-1.22-1.04-2.42-1.7-4.44-1.7-2.92,0-5.14,2.56-5.14,5.6v.04c0,3.26,2.15,5.67,5.39,5.67,1.5,0,2.85-.48,3.83-1.2v-2.97h-4.06v-2.42h6.75v6.66c-1.56,1.34-3.81,2.47-6.62,2.47-4.96,0-8.22-3.53-8.22-8.16"/><polygon class="cls-3" points="341.88 141.18 353.64 141.18 353.64 143.67 344.67 143.67 344.67 147.79 352.62 147.79 352.62 150.29 344.67 150.29 344.67 154.55 353.75 154.55 353.75 157.04 341.88 157.04 341.88 141.18"/><polygon class="cls-3" points="363.32 141.18 365.9 141.18 374.39 152.14 374.39 141.18 377.13 141.18 377.13 157.04 374.8 157.04 366.06 145.75 366.06 157.04 363.32 157.04 363.32 141.18"/><polygon class="cls-3" points="391.37 143.76 386.34 143.76 386.34 141.18 399.21 141.18 399.21 143.76 394.18 143.76 394.18 157.04 391.37 157.04 391.37 143.76"/><polygon class="cls-3" points="421.46 141.18 424.43 141.18 429.26 148.68 434.08 141.18 437.05 141.18 437.05 157.04 434.26 157.04 434.26 145.67 429.26 153.14 429.17 153.14 424.2 145.71 424.2 157.04 421.46 157.04 421.46 141.18"/><path class="cls-3" d="m445.32,149.15v-.04c0-4.46,3.44-8.2,8.32-8.2s8.27,3.69,8.27,8.16v.04c0,4.46-3.44,8.2-8.32,8.2s-8.27-3.69-8.27-8.16m13.66,0v-.04c0-3.08-2.24-5.64-5.39-5.64s-5.35,2.52-5.35,5.6v.04c0,3.08,2.24,5.64,5.39,5.64s5.35-2.52,5.35-5.6"/><polygon class="cls-3" points="468.31 141.18 471.39 141.18 476.17 153.37 480.92 141.18 483.94 141.18 477.34 157.15 474.9 157.15 468.31 141.18"/><polygon class="cls-3" points="492.91 141.18 504.67 141.18 504.67 143.67 495.7 143.67 495.7 147.79 503.65 147.79 503.65 150.29 495.7 150.29 495.7 154.55 504.78 154.55 504.78 157.04 492.91 157.04 492.91 141.18"/><path class="cls-3" d="m166.11,25.05v3.87h-1.72V3.26h1.72v11.74c1.55-2.35,3.83-4.43,7.38-4.43,4.32,0,8.72,3.48,8.72,9.31v.07c0,5.84-4.39,9.39-8.72,9.39-3.58,0-5.9-2.04-7.38-4.29Zm14.23-5.03v-.07c0-4.71-3.27-7.73-7.03-7.73s-7.31,3.13-7.31,7.7v.07c0,4.6,3.58,7.7,7.31,7.7s7.03-2.85,7.03-7.66Z"/><path class="cls-3" d="m185.87,10.99h1.72v5.1c1.41-3.2,4.39-5.52,7.94-5.38v1.9h-.18c-4.15,0-7.77,3.13-7.77,8.96v7.34h-1.72V10.99Z"/><path class="cls-3" d="m196.1,20.03v-.07c0-5.02,3.9-9.38,9.24-9.38s9.17,4.29,9.17,9.31v.07c0,5.03-3.9,9.39-9.24,9.39s-9.17-4.29-9.17-9.31Zm16.55,0v-.07c0-4.32-3.23-7.77-7.38-7.77s-7.31,3.48-7.31,7.7v.07c0,4.32,3.23,7.77,7.38,7.77s7.31-3.48,7.31-7.7Z"/><path class="cls-3" d="m217.75,21.96v-10.97h1.72v10.65c0,3.69,2.08,6.12,5.69,6.12s6.22-2.67,6.22-6.4v-10.37h1.72v17.92h-1.72v-3.34c-1.2,2.11-3.2,3.76-6.47,3.76-4.53,0-7.17-3.09-7.17-7.38Z"/><path class="cls-3" d="m237.57,31.87l1.02-1.4c2.14,1.65,4.6,2.53,7.24,2.53,4.11,0,7.03-2.35,7.03-6.96v-2.6c-1.55,2.21-3.94,4.15-7.49,4.15-4.32,0-8.61-3.3-8.61-8.43v-.07c0-5.17,4.29-8.51,8.61-8.51,3.59,0,6.01,1.9,7.49,4.01v-3.58h1.72v15.15c0,2.6-.84,4.64-2.28,6.08-1.55,1.55-3.87,2.39-6.5,2.39-2.99,0-5.76-.91-8.22-2.74Zm15.4-12.76v-.07c0-4.15-3.69-6.82-7.42-6.82s-6.92,2.6-6.92,6.78v.07c0,4.04,3.23,6.85,6.92,6.85s7.42-2.74,7.42-6.82Z"/><path class="cls-3" d="m259.4,3.26h1.72v11.07c1.19-2.11,3.2-3.76,6.46-3.76,4.53,0,7.17,3.09,7.17,7.38v10.97h-1.72v-10.65c0-3.69-2.07-6.11-5.69-6.11s-6.22,2.67-6.22,6.4v10.37h-1.72V3.26Z"/><path class="cls-3" d="m280.18,24.31v-11.74h-2.6v-1.58h2.6v-5.73h1.72v5.73h6.29v1.58h-6.29v11.56c0,2.56,1.51,3.48,3.58,3.48.88,0,1.61-.18,2.64-.63v1.62c-.91.42-1.79.63-2.92.63-2.77,0-5.02-1.51-5.02-4.92Z"/><path class="cls-3" d="m301.34,24.31v-11.74h-2.6v-1.58h2.6v-5.73h1.72v5.73h6.29v1.58h-6.29v11.56c0,2.56,1.51,3.48,3.58,3.48.88,0,1.61-.18,2.64-.63v1.62c-.91.42-1.79.63-2.92.63-2.77,0-5.02-1.51-5.02-4.92Z"/><path class="cls-3" d="m310.97,20.03v-.07c0-5.02,3.9-9.38,9.24-9.38s9.17,4.29,9.17,9.31v.07c0,5.03-3.9,9.39-9.24,9.39s-9.17-4.29-9.17-9.31Zm16.55,0v-.07c0-4.32-3.23-7.77-7.38-7.77s-7.31,3.48-7.31,7.7v.07c0,4.32,3.23,7.77,7.38,7.77s7.31-3.48,7.31-7.7Z"/><path class="cls-3" d="m355.82,10.99h1.9l-7.77,18.56c-1.58,3.76-3.41,5.1-5.98,5.1-1.37,0-2.36-.24-3.55-.77l.6-1.51c.95.46,1.72.67,3.06.67,1.86,0,3.09-1.09,4.43-4.22l-8.61-17.82h2l7.45,16.03,6.46-16.03Z"/><path class="cls-3" d="m358.43,20.03v-.07c0-5.02,3.9-9.38,9.24-9.38s9.17,4.29,9.17,9.31v.07c0,5.03-3.9,9.39-9.24,9.39s-9.17-4.29-9.17-9.31Zm16.55,0v-.07c0-4.32-3.23-7.77-7.38-7.77s-7.31,3.48-7.31,7.7v.07c0,4.32,3.23,7.77,7.38,7.77s7.31-3.48,7.31-7.7Z"/><path class="cls-3" d="m380.08,21.96v-10.97h1.72v10.65c0,3.69,2.07,6.12,5.69,6.12s6.22-2.67,6.22-6.4v-10.37h1.72v17.92h-1.72v-3.34c-1.19,2.11-3.2,3.76-6.46,3.76-4.53,0-7.17-3.09-7.17-7.38Z"/><path class="cls-3" d="m410.8,25.05v3.87h-1.72V3.26h1.72v11.74c1.55-2.35,3.83-4.43,7.38-4.43,4.32,0,8.71,3.48,8.71,9.31v.07c0,5.84-4.39,9.39-8.71,9.39-3.58,0-5.91-2.04-7.38-4.29Zm14.23-5.03v-.07c0-4.71-3.27-7.73-7.03-7.73s-7.31,3.13-7.31,7.7v.07c0,4.6,3.58,7.7,7.31,7.7s7.03-2.85,7.03-7.66Z"/><path class="cls-3" d="m443.7,10.99h1.9l-7.77,18.56c-1.58,3.76-3.41,5.1-5.98,5.1-1.37,0-2.35-.24-3.55-.77l.6-1.51c.95.46,1.72.67,3.06.67,1.86,0,3.09-1.09,4.43-4.22l-8.61-17.82h2l7.45,16.03,6.46-16.03Z"/></g></g></svg>